DBRep_DrawableShape

CASCADE Topology V3, (c) Open Cascade
Locations 1
1
              1               0               0               0 
              0               1               0               0 
              0               0               1             2.7 
Curve2ds 0
Curves 24
1 2.5539106493931927 0.37270332624514341 0 0 0 1 
1 0 0 0 0 0 1 
1 2.5539106493931927 0.37270332624514341 0 -0.98951870061947211 -0.14440478220734754 0 
1 -2.5539106493931927 0.37270332624514341 0 0 0 1 
1 -2.5539106493931927 0.37270332624514341 0 0.98951870061947211 -0.14440478220734754 0 
1 -5.1078212987863854 0.74540665249028681 0 0 0 1 
1 -5.1078212987863854 0.74540665249028681 0 0.98951870061947211 -0.14440478220734754 0 
1 -4.0863229961737684 3.3625016250833917 0 0 0 1 
1 -4.0863229961737684 3.3625016250833917 0 -0.36360208759912699 -0.93155435799182262 0 
1 -3.2774050428911456 5.930097872764744 0 0 0 1 
1 -3.2774050428911456 5.930097872764744 0 -0.30048886108701456 -0.95378532404447736 0 
1 -1.6387025214455728 6.7488946206002289 0 0 0 1 
1 -1.6387025214455728 6.7488946206002289 0 -0.89454823901697944 -0.44697141751080799 0 
1 0 7.567691368435713 0 0 0 1 
1 -0 7.567691368435713 0 -0.89454823901697955 -0.44697141751080754 0 
1 1.6387025214455728 6.7488946206002289 0 0 0 1 
1 0 7.567691368435713 0 0.89454823901697955 -0.44697141751080754 0 
1 3.2774050428911456 5.930097872764744 0 0 0 1 
1 1.6387025214455728 6.7488946206002289 0 0.89454823901697944 -0.44697141751080799 0 
1 4.0863229961737684 3.3625016250833917 0 0 0 1 
1 3.2774050428911456 5.930097872764744 0 0.30048886108701456 -0.95378532404447736 0 
1 5.1078212987863854 0.74540665249028681 0 0 0 1 
1 4.0863229961737684 3.3625016250833917 0 0.36360208759912699 -0.93155435799182262 0 
1 5.1078212987863854 0.74540665249028681 0 -0.98951870061947211 -0.14440478220734754 0 
Polygon3D 0
PolygonOnTriangulations 0
Surfaces 13
1 2.5539106493931927 0.37270332624514341 0 0.14440478220734757 -0.98951870061947222 0 -0.98951870061947222 -0.14440478220734757 0 0 -0 -1 
1 5.1078212987863854 0.74540665249028681 0 0.14440478220734757 -0.98951870061947222 0 -0.98951870061947222 -0.14440478220734757 0 0 -0 -1 
1 -2.5539106493931927 0.37270332624514341 0 0.14440478220734757 0.98951870061947222 -0 0.98951870061947222 -0.14440478220734757 0 0 -0 -1 
1 -5.1078212987863854 0.74540665249028681 0 0.14440478220734757 0.98951870061947222 -0 0.98951870061947222 -0.14440478220734757 0 0 -0 -1 
1 -4.0863229961737684 3.3625016250833917 0 0.93155435799182262 -0.36360208759912699 0 -0.36360208759912699 -0.93155435799182262 0 0 -0 -1 
1 -3.2774050428911456 5.930097872764744 0 0.95378532404447747 -0.30048886108701461 0 -0.30048886108701461 -0.95378532404447747 0 0 -0 -1 
1 -1.6387025214455728 6.7488946206002289 0 0.44697141751080799 -0.89454823901697944 0 -0.89454823901697944 -0.44697141751080799 0 0 -0 -1 
1 -0 7.567691368435713 0 0.4469714175108076 -0.89454823901697966 0 -0.89454823901697966 -0.4469714175108076 0 0 -0 -1 
1 0 7.567691368435713 0 0.4469714175108076 0.89454823901697966 -0 0.89454823901697966 -0.4469714175108076 0 0 -0 -1 
1 1.6387025214455728 6.7488946206002289 0 0.44697141751080799 0.89454823901697944 -0 0.89454823901697944 -0.44697141751080799 0 0 -0 -1 
1 3.2774050428911456 5.930097872764744 0 0.95378532404447747 0.30048886108701461 -0 0.30048886108701461 -0.95378532404447747 0 0 -0 -1 
1 4.0863229961737684 3.3625016250833917 0 0.93155435799182262 0.36360208759912699 -0 0.36360208759912699 -0.93155435799182262 0 0 -0 -1 
1 4.0295464017217454e-16 3.1359079732103536 0 -0 -0 -1 -1 0 0 0 1 -0 
Triangulations 0

TShapes 69
Ve
1e-07
2.55391064939319 0.372703326245143 0
0 0

0101101
*
Ed
 1e-07 1 1 0
1  1 0 0 2.7
4 C2 1 0 2 0
0

0101000
+69 0 -69 1 *
Ve
1e-07
0 0 0
0 0

0101101
*
Ed
 1e-07 1 1 0
1  2 0 0 2.7
0

0101000
+67 0 -67 1 *
Ed
 1e-07 1 1 0
1  3 0 0 2.58096248994017
0

0101000
+69 0 -67 0 *
Wi

0101100
+68 0 -66 0 -65 0 +65 1 *
Fa
0  1e-07 1 0

0101000
+64 0 *
Ve
1e-07
-2.55391064939319 0.372703326245143 0
0 0

0101101
*
Ed
 1e-07 1 1 0
1  4 0 0 2.7
4 C2 3 0 4 0
0

0101000
+62 0 -62 1 *
Ed
 1e-07 1 1 0
1  5 0 0 2.58096248994017
0

0101000
+62 0 -67 0 *
Wi

0101100
+61 0 -66 0 -60 0 +60 1 *
Fa
0  1e-07 3 0

0101000
+59 0 *
Ve
1e-07
-5.10782129878639 0.745406652490287 0
0 0

0101101
*
Ed
 1e-07 1 1 0
1  6 0 0 2.7
0

0101000
+57 0 -57 1 *
Ed
 1e-07 1 1 0
1  7 0 0 2.58096248994017
0

0101000
+57 0 -62 0 *
Wi

0101100
+56 0 -61 0 -55 0 +55 1 *
Fa
0  1e-07 4 0

0101000
+54 0 *
Ve
1e-07
-4.08632299617377 3.36250162508339 0
0 0

0101101
*
Ed
 1e-07 1 1 0
1  8 0 0 2.7
0

0101000
+52 0 -52 1 *
Ed
 1e-07 1 1 0
1  9 0 0 2.80938514230651
0

0101000
+52 0 -57 0 *
Wi

0101100
+51 0 -56 0 -50 0 +50 1 *
Fa
0  1e-07 5 0

0101000
+49 0 *
Ve
1e-07
-3.27740504289115 5.93009787276474 0
0 0

0101101
*
Ed
 1e-07 1 1 0
1  10 0 0 2.7
0

0101000
+47 0 -47 1 *
Ed
 1e-07 1 1 0
1  11 0 0 2.69200645360488
0

0101000
+47 0 -52 0 *
Wi

0101100
+46 0 -51 0 -45 0 +45 1 *
Fa
0  1e-07 6 0

0101000
+44 0 *
Ve
1e-07
-1.63870252144557 6.74889462060023 0
0 0

0101101
*
Ed
 1e-07 1 1 0
1  12 0 0 2.7
4 C2 7 0 8 0
0

0101000
+42 0 -42 1 *
Ed
 1e-07 1 1 0
1  13 0 0 1.83187719786509
0

0101000
+42 0 -47 0 *
Wi

0101100
+41 0 -46 0 -40 0 +40 1 *
Fa
0  1e-07 7 0

0101000
+39 0 *
Ve
1e-07
0 7.56769136843571 0
0 0

0101101
*
Ed
 1e-07 1 1 0
1  14 0 0 2.7
0

0101000
+37 0 -37 1 *
Ed
 1e-07 1 1 0
1  15 0 0 1.83187719786509
0

0101000
+37 0 -42 0 *
Wi

0101100
+36 0 -41 0 -35 0 +35 1 *
Fa
0  1e-07 8 0

0101000
+34 0 *
Ve
1e-07
1.63870252144557 6.74889462060023 0
0 0

0101101
*
Ed
 1e-07 1 1 0
1  16 0 0 2.7
4 C2 9 0 10 0
0

0101000
+32 0 -32 1 *
Ed
 1e-07 1 1 0
1  17 0 0 1.83187719786509
0

0101000
+37 0 -32 0 *
Wi

0101100
+36 0 -31 0 -30 0 +30 1 *
Fa
0  1e-07 9 0

0101000
+29 0 *
Ve
1e-07
3.27740504289115 5.93009787276474 0
0 0

0101101
*
Ed
 1e-07 1 1 0
1  18 0 0 2.7
0

0101000
+27 0 -27 1 *
Ed
 1e-07 1 1 0
1  19 0 0 1.83187719786509
0

0101000
+32 0 -27 0 *
Wi

0101100
+31 0 -26 0 -25 0 +25 1 *
Fa
0  1e-07 10 0

0101000
+24 0 *
Ve
1e-07
4.08632299617377 3.36250162508339 0
0 0

0101101
*
Ed
 1e-07 1 1 0
1  20 0 0 2.7
0

0101000
+22 0 -22 1 *
Ed
 1e-07 1 1 0
1  21 0 0 2.69200645360488
0

0101000
+27 0 -22 0 *
Wi

0101100
+26 0 -21 0 -20 0 +20 1 *
Fa
0  1e-07 11 0

0101000
+19 0 *
Ve
1e-07
5.10782129878639 0.745406652490287 0
0 0

0101101
*
Ed
 1e-07 1 1 0
1  22 0 0 2.7
0

0101000
+17 0 -17 1 *
Ed
 1e-07 1 1 0
1  23 0 0 2.80938514230651
0

0101000
+22 0 -17 0 *
Wi

0101100
+21 0 -16 0 -15 0 +15 1 *
Fa
0  1e-07 12 0

0101000
+14 0 *
Ed
 1e-07 1 1 0
1  24 0 0 2.58096248994017
0

0101000
+17 0 -69 0 *
Wi

0101100
+16 0 -68 0 -12 0 +12 1 *
Fa
0  1e-07 2 0

0101000
+11 0 *
Wi

0101100
+65 0 -60 0 -55 0 -50 0 -45 0 -40 0 -35 0 +30 0 +25 0 +20 0 
+15 0 +12 0 *
Fa
0  1e-07 13 0

0111000
+9 0 *
Sh

0101100
+63 0 -58 0 -53 0 -48 0 -43 0 -38 0 -33 0 +28 0 +23 0 +18 0 
+13 0 +10 0 +8 0 -8 1 *
So

0100000
+7 0 *
Ve
1e-07
-0 0 0
0 0

0101101
*
Ed
 1e-07 1 1 0
1  5 0 0 2.58096248994017
0

0101000
+62 0 -5 0 *
Ve
1e-07
-0 7.56769136843571 0
0 0

0101101
*
Ed
 1e-07 1 1 0
1  15 0 0 1.83187719786509
0

0101000
+3 0 -42 0 *
Co

1100000
+6 0 +4 0 +2 0 *

+1 0 