DBRep_DrawableShape

CASCADE Topology V3, (c) Open Cascade
Locations 1
1
              1               0               0               0 
              0               1               0               0 
              0               0               1               2 
Curve2ds 0
Curves 14
1 0.77500000000000002 0 0 0 0 1 
1 0 0 0 0 0 1 
1 0.77500000000000002 0 0 -1 0 0 
1 0 3.7000000000000002 0 0 0 1 
1 0 3.7000000000000002 0 0 -1 0 
1 0.5 3.7000000000000002 0 0 0 1 
1 0 3.7000000000000002 0 1 0 0 
1 1.8500000000000001 3.7000000000000002 0 0 0 1 
1 0.5 3.7000000000000002 0 1 0 0 
1 1.8500000000000001 1.2333333333333334 0 0 0 1 
1 1.8500000000000001 3.7000000000000002 0 0 -1 0 
1 1.55 0 0 0 0 1 
1 1.8500000000000001 1.2333333333333334 0 -0.2363515791475006 -0.97166760316194689 0 
1 1.55 0 0 -1 0 0 
Polygon3D 0
PolygonOnTriangulations 0
Surfaces 8
1 0.77500000000000002 0 0 0 -1 0 -1 0 0 -0 -0 -1 
1 1.55 0 0 0 -1 0 -1 0 0 -0 -0 -1 
1 0 3.7000000000000002 0 1 0 -0 0 -1 0 0 -0 -1 
1 0 3.7000000000000002 0 0 1 0 1 0 0 0 0 -1 
1 0.5 3.7000000000000002 0 0 1 0 1 0 0 0 0 -1 
1 1.8500000000000001 3.7000000000000002 0 1 0 -0 0 -1 0 0 -0 -1 
1 1.8500000000000001 1.2333333333333334 0 0.97166760316194689 -0.2363515791475006 0 -0.2363515791475006 -0.97166760316194689 0 0 -0 -1 
1 0.88904294325395605 1.8971251773183158 0 -0 -0 -1 -1 0 0 0 1 -0 
Triangulations 0

TShapes 40
Ve
1e-07
0.775 0 0
0 0

0101101
*
Ed
 1e-07 1 1 0
1  1 0 0 2
4 C2 1 0 2 0
0

0101000
+40 0 -40 1 *
Ve
1e-07
0 0 0
0 0

0101101
*
Ed
 1e-07 1 1 0
1  2 0 0 2
0

0101000
+38 0 -38 1 *
Ed
 1e-07 1 1 0
1  3 0 0 0.775
0

0101000
+40 0 -38 0 *
Wi

0101100
+39 0 -37 0 -36 0 +36 1 *
Fa
0  1e-07 1 0

0101000
+35 0 *
Ve
1e-07
0 3.7 0
0 0

0101101
*
Ed
 1e-07 1 1 0
1  4 0 0 2
0

0101000
+33 0 -33 1 *
Ed
 1e-07 1 1 0
1  5 0 0 3.7
0

0101000
+33 0 -38 0 *
Wi

0101100
+32 0 -37 0 -31 0 +31 1 *
Fa
0  1e-07 3 0

0101000
+30 0 *
Ve
1e-07
0.5 3.7 0
0 0

0101101
*
Ed
 1e-07 1 1 0
1  6 0 0 2
4 C2 4 0 5 0
0

0101000
+28 0 -28 1 *
Ed
 1e-07 1 1 0
1  7 0 0 0.5
0

0101000
+33 0 -28 0 *
Wi

0101100
+32 0 -27 0 -26 0 +26 1 *
Fa
0  1e-07 4 0

0101000
+25 0 *
Ve
1e-07
1.85 3.7 0
0 0

0101101
*
Ed
 1e-07 1 1 0
1  8 0 0 2
0

0101000
+23 0 -23 1 *
Ed
 1e-07 1 1 0
1  9 0 0 1.35
0

0101000
+28 0 -23 0 *
Wi

0101100
+27 0 -22 0 -21 0 +21 1 *
Fa
0  1e-07 5 0

0101000
+20 0 *
Ve
1e-07
1.85 1.23333333333333 0
0 0

0101101
*
Ed
 1e-07 1 1 0
1  10 0 0 2
0

0101000
+18 0 -18 1 *
Ed
 1e-07 1 1 0
1  11 0 0 2.46666666666667
0

0101000
+23 0 -18 0 *
Wi

0101100
+22 0 -17 0 -16 0 +16 1 *
Fa
0  1e-07 6 0

0101000
+15 0 *
Ve
1e-07
1.55 0 0
0 0

0101101
*
Ed
 1e-07 1 1 0
1  12 0 0 2
0

0101000
+13 0 -13 1 *
Ed
 1e-07 1 1 0
1  13 0 0 1.26929551764398
0

0101000
+18 0 -13 0 *
Wi

0101100
+17 0 -12 0 -11 0 +11 1 *
Fa
0  1e-07 7 0

0101000
+10 0 *
Ed
 1e-07 1 1 0
1  14 0 0 0.775
0

0101000
+13 0 -40 0 *
Wi

0101100
+12 0 -39 0 -8 0 +8 1 *
Fa
0  1e-07 2 0

0101000
+7 0 *
Wi

0101100
+36 0 -31 0 +26 0 +21 0 +16 0 +11 0 +8 0 *
Fa
0  1e-07 8 0

0111000
+5 0 *
Sh

0101100
+34 0 -29 0 +24 0 +19 0 +14 0 +9 0 +6 0 +4 0 -4 1 *
So

0100000
+3 0 *
Co

1100000
+2 0 *

+1 0 